# xmcd CD database file
#
# Track frame offsets:
#	150
#	15319
#	29455
#	45045
#	61081
#	75773
#	95178
#	111685
#	129566
#	146226
#	158974
#	177191
#
# Disc length: 2577 seconds
#
# Revision: 1
# Processed by: cddbd v1.5.1PL0 Copyright (c) Steve Scherf et al.
# Submitted via: CDex 1.50Beta5
#
DISCID=950a0f0c
DTITLE=Blinker - Monty Bürkle&Chris Hermal - Angeln pur 
DYEAR=1900
DGENRE=Country
TTITLE0=Angeln pur
TTITLE1=Eine Angelfreundschaft hält ein Leben lang
TTITLE2=Twister-Blues
TTITLE3=Der kleine Hechtling
TTITLE4=Pack die Stipprute aus
TTITLE5=Fang dir den Lachs am River Yukon
TTITLE6=Wallerholz-Blues
TTITLE7=Die MS "Alter Seebär" ist startklar?
TTITLE8=Angelurlaub mit der ganzen Familie
TTITLE9=Hecht-Boogie
TTITLE10=Die Nymphe tanzt ihr Spiel
TTITLE11=Petri Heil!
EXTD=
EXTT0=
EXTT1=
EXTT2=
EXTT3=
EXTT4=
EXTT5=
EXTT6=
EXTT7=
EXTT8=
EXTT9=
EXTT10=
EXTT11=
PLAYORDER=
